<svg width="60" height="12" viewBox="0 0 60 12" fill="none" xmlns="http://www.w3.org/2000/svg">
<path d="M7.78125 4.15625L5.95312 0.429688L4.10156 4.15625L0 4.76562L2.97656 7.64844L2.27344 11.75L5.95312 9.82812L9.60938 11.75L8.92969 7.64844L11.8828 4.76562L7.78125 4.15625ZM19.7812 4.15625L17.9531 0.429688L16.1016 4.15625L12 4.76562L14.9766 7.64844L14.2734 11.75L17.9531 9.82812L21.6094 11.75L20.9297 7.64844L23.8828 4.76562L19.7812 4.15625ZM31.7812 4.15625L29.9531 0.429688L28.1016 4.15625L24 4.76562L26.9766 7.64844L26.2734 11.75L29.9531 9.82812L33.6094 11.75L32.9297 7.64844L35.8828 4.76562L31.7812 4.15625ZM43.7812 4.15625L41.9531 0.429688L40.1016 4.15625L36 4.76562L38.9766 7.64844L38.2734 11.75L41.9531 9.82812L45.6094 11.75L44.9297 7.64844L47.8828 4.76562L43.7812 4.15625ZM55.7812 4.15625L53.9531 0.429688L52.1016 4.15625L48 4.76562L50.9766 7.64844L50.2734 11.75L53.9531 9.82812L57.6094 11.75L56.9297 7.64844L59.8828 4.76562L55.7812 4.15625Z" fill="#FDA72F"/>
</svg>
